<?xml version="1.0" encoding="UTF-8"?>
<svg width="261px" height="261px" viewBox="0 0 261 261" version="1.1" xmlns="http://www.w3.org/2000/svg" xmlns:xlink="http://www.w3.org/1999/xlink">
    <title>favicon@1x@192</title>
    <g id="favicon@1x" stroke="none" fill="none" fill-rule="evenodd" stroke-width="1">
        <g id="编组">
            <g></g>
            <g fill="#F6AA37" fill-rule="nonzero" id="路径">
                <path d="M85,13 C85.35,13.03 85.76,13.94 86,14 C102.28,18.39 119.8,31.63 131,45 C129.49,42.88 127.34,41.17 126,39 C150.46,59.15 175.76,85.43 174,119 C175.42,113.9 178.23,107.54 179,102 C180.63,90.32 180.08,77.19 179,66 C178.66,67.56 179.75,70.17 178,71 C177.86,56.42 169.6,40.97 162.92,29.08 C156.24,17.19 144.83,5.7 131.22,4.78 C117.61,3.86 93.97,1.31 85,13 Z"></path>
            </g>
            <g fill="#E6A17C" fill-rule="nonzero" id="路径">
                <path d="M79,18 C80.72,16.28 82.59,15.01 84,13 C81.84,14.06 80.52,16.22 79,18 Z"></path>
            </g>
            <g fill="#D95A1D" fill-rule="nonzero" id="路径">
                <path d="M79,18 C73.44,24.5 73.51,26.93 68.25,34.25 C63,41.58 67.82,44.97 75.78,46.22 C83.74,47.47 87.84,50.29 95,53 C98.04,54.15 101.19,55.28 104,57 C120.55,67.14 136.07,76.07 150,91 C145.14,83.01 130.16,76.43 133,68 C130.31,68.16 129.83,65.09 128,64 C135.57,59.51 124.45,52.71 121.23,45.77 C118.01,38.83 109.51,34.8 104.25,28.75 C98.99,22.71 92.1,17.23 83,16 C83.44,14.71 84.58,13.79 86,14 C85.76,13.94 85.35,13.03 85,13 C85,13 84.4,12.8 84,13 C82.59,15.01 80.72,16.28 79,18 Z"></path>
            </g>
            <g fill="#C8421F" fill-rule="nonzero" id="路径">
                <path d="M150,91 C150.39,91.63 150.63,92.4 151,93 C153.62,97.21 156.94,101.09 158,106 C157.71,84.18 143.8,63.05 131,45 C119.8,31.63 102.28,18.39 86,14 C84.58,13.79 83.44,14.71 83,16 C92.1,17.23 98.99,22.71 104.25,28.75 C109.51,34.8 118.01,38.83 121.23,45.77 C124.45,52.71 135.57,59.51 128,64 C129.83,65.09 130.31,68.16 133,68 C130.16,76.43 145.14,83.01 150,91 Z"></path>
            </g>
            <g fill="#ECB391" fill-rule="nonzero" id="路径">
                <path d="M173,30 C174.62,27.46 186.9,28.83 190,29 C186.43,28.42 173.47,25.86 173,30 Z"></path>
            </g>
            <g fill="#D95A1D" fill-rule="nonzero" id="路径">
                <path d="M173,30 C172.36,35.64 176.75,41.1 177.01,46.99 C177.26,52.88 179.39,59.68 179,66 C180.08,77.19 180.63,90.32 179,102 C181.2,99.31 185.51,102.05 189,100 C188.24,97.71 188.19,95.19 187,93 C192.65,89.86 198.12,85.11 199.97,77.97 C201.83,70.84 202.98,63.61 206.77,56.77 C210.57,49.94 204.06,37.64 208,33 C207.76,32.7 208,32 208,32 C203.35,29.55 195.25,29.28 190,29 C186.9,28.83 174.62,27.46 173,30 Z"></path>
            </g>
            <g fill="#F3A540" fill-rule="nonzero" id="路径">
                <path d="M208,33 C214.35,40.82 208.86,58.45 209.02,68.02 C209.19,77.6 203.49,89.05 199.69,97.69 C195.9,106.34 189.94,113.78 184.25,121.25 C178.55,128.71 172.74,135.65 165,141 C163.98,141.7 163.62,143.96 162,144 C162.27,142.17 163.02,139.7 165,139 C166.61,134.94 169.19,130.95 171,127 C168.04,128.94 163.68,127.8 162,125 C161.37,128.83 163.28,133.99 161,137 C160.78,137.3 160.05,137.77 160,138 C160,149.57 150.72,151.14 143.3,157.3 C135.88,163.46 123.63,164.43 117.25,158.75 C110.88,153.06 99.24,151.15 97.23,142.77 C95.22,134.39 94.43,115.5 101,110 C96.93,112.91 91.62,116.7 89,121 C90.12,119.66 92.31,118.14 94,118 C94.27,119.28 93.23,120.72 92,121 C88.98,129.08 84,136.97 84,146 C84,162.86 95.51,179.99 105.92,192.08 C116.32,204.17 127.76,216.75 140,224 C120.73,204.73 104.03,179.66 101,154 C102.28,159.25 105.74,163.72 109,168 C121.55,180.55 141.46,183.11 159,183 C176.54,182.89 193.06,184.42 210,189 C208.63,196.88 221.38,196.4 228,198 C228.55,199.82 226.25,200.47 226,202 C242.08,192.15 253.38,171.24 254,153 C254.06,151.34 254,149.66 254,148 C250.73,153.58 242.55,154.94 237.31,158.31 C232.06,161.67 224,165 218,167 C192.33,175.56 163,176.15 137,168 C142.28,165.84 149.39,167.16 155,165 C164.86,159.96 172.15,152.49 179.75,143.75 C187.36,135.01 192.48,125.97 196.97,114.97 C201.47,103.97 219.53,111.92 229,114 C237.88,100.23 244.26,80.86 236.32,65.68 C228.39,50.49 223.01,40.45 208,32 C208,32 207.76,32.7 208,33 Z"></path>
            </g>
            <g fill="#C8401E" fill-rule="nonzero" id="路径">
                <path d="M179,102 C178.23,107.54 175.42,113.9 174,119 C173.16,122.02 172.2,124.38 171,127 C169.19,130.95 166.61,134.94 165,139 C164.63,139.94 165,141 165,141 C172.74,135.65 178.55,128.71 184.25,121.25 C189.94,113.78 195.9,106.34 199.69,97.69 C203.49,89.05 209.19,77.6 209.02,68.02 C208.86,58.45 214.35,40.82 208,33 C204.06,37.64 210.57,49.94 206.77,56.77 C202.98,63.61 201.83,70.84 199.97,77.97 C198.12,85.11 192.65,89.86 187,93 C188.19,95.19 188.24,97.71 189,100 C185.51,102.05 181.2,99.31 179,102 Z"></path>
            </g>
            <g fill="#F7BE5D" fill-rule="nonzero" id="路径">
                <path d="M131,45 C143.8,63.05 157.71,84.18 158,106 C156.94,101.09 153.62,97.21 151,93 C128.48,67.17 84.48,77.39 57,86 C57.83,87.75 60.44,86.66 62,87 C76.97,83.29 103.42,84.18 117,91 C117.91,91.46 119.99,91.23 120,93 C118.67,93 117.33,93 116,93 C110,93.8 104.73,93.38 99,95 C91.28,98.65 86.02,107.05 80.7,113.7 C75.38,120.34 69.24,128.52 67.02,137.02 C64.81,145.53 57.68,156.24 58,165 C58.3,165.9 57.76,167.08 58,168 C59.25,167.7 59.71,166.17 61,166 C67.15,149.34 78.92,137.92 88,123 C88.39,122.36 88.63,121.61 89,121 C91.62,116.7 96.93,112.91 101,110 C108.03,104.98 121.07,92.38 130.07,95.93 C139.08,99.47 152.54,104.63 158,113 C158.15,113.23 159,113 159,113 C161.12,113.34 160.78,115.5 161,117 C161.87,122.79 161.83,131.2 161,137 C163.28,133.99 161.37,128.83 162,125 C163.68,127.8 168.04,128.94 171,127 C172.2,124.38 173.16,122.02 174,119 C175.76,85.43 150.46,59.15 126,39 C127.34,41.17 129.49,42.88 131,45 Z"></path>
            </g>
            <g fill="#F49E31" fill-rule="nonzero" id="路径">
                <path d="M7,110 C7.03,110.5 7,111.5 7,112 C7.99,110.13 14.1,107.3 16,106 C30.06,96.35 46.09,90.94 62,87 C60.44,86.66 57.83,87.75 57,86 C84.48,77.39 128.48,67.17 151,93 C150.63,92.4 150.39,91.63 150,91 C136.07,76.07 120.55,67.14 104,57 C102.21,56.48 96.58,55.7 94,55 C76.07,50.14 46.62,46.84 31.75,59.75 C16.88,72.67 5.79,90.73 7,110 Z"></path>
            </g>
            <g fill="#ECCCB0" fill-rule="nonzero" id="路径">
                <path d="M94,55 C96.58,55.7 102.21,56.48 104,57 C101.19,55.28 98.04,54.15 95,53 C96.2,54.56 95.42,54.71 94,55 Z"></path>
            </g>
            <g fill="#C7391E" fill-rule="nonzero" id="路径">
                <path d="M62,87 C46.09,90.94 30.06,96.35 16,106 C17.03,105.85 26.72,106.12 32.07,102.07 C37.42,98.03 46.18,100.19 52.01,98.01 C57.84,95.82 64.46,94.76 72.02,94.02 C79.58,93.29 86.98,96.85 95,96 C96.68,95.82 97.46,95.43 99,95 C104.73,93.38 110,93.8 116,93 C116.28,92.87 116.88,91.03 117,91 C103.42,84.18 76.97,83.29 62,87 Z"></path>
            </g>
            <g fill="#DD6E2A" fill-rule="nonzero" id="路径">
                <path d="M116,93 C117.33,93 118.67,93 120,93 C119.99,91.23 117.91,91.46 117,91 C116.88,91.03 116.28,92.87 116,93 Z"></path>
            </g>
            <g fill="#D64E1D" fill-rule="nonzero" id="路径">
                <path d="M16,106 C14.1,107.3 7.99,110.13 7,112 C7,112.93 6.83,114.08 7,115 C11.61,125.3 16.64,137.55 26,144 C33.06,135.76 41.43,128.43 50,122 C51.77,120.67 54.31,119.23 56,118 C65.42,108.2 82.43,99.64 95,96 C86.98,96.85 79.58,93.29 72.02,94.02 C64.46,94.76 57.84,95.82 52.01,98.01 C46.18,100.19 37.42,98.03 32.07,102.07 C26.72,106.12 17.03,105.85 16,106 Z"></path>
            </g>
            <g fill="#F39631" fill-rule="nonzero" id="路径">
                <path d="M95,96 C82.43,99.64 65.42,108.2 56,118 C51.36,122.83 46.06,128.06 42,133 C37.95,139.15 33.7,144.64 30,151 C32.87,148.99 33.1,153.8 37,150 C36.26,156.31 48.28,153.35 47,158 C50.08,154.66 54.01,158.05 58,159 C58,161 58,163 58,165 C57.68,156.24 64.81,145.53 67.02,137.02 C69.24,128.52 75.38,120.34 80.7,113.7 C86.02,107.05 91.28,98.65 99,95 C97.46,95.43 96.68,95.82 95,96 Z"></path>
            </g>
            <g></g>
            <g fill="#EE8925" fill-rule="nonzero" id="路径">
                <path d="M155,165 C159.86,164.23 164.3,163.37 169,162 C181.04,157.04 194.44,149.24 205,142 C205.45,141.07 205.47,140.77 206,140 C209.45,134.99 214.81,131.19 219,127 C222.58,122.81 226.03,118.61 229,114 C219.53,111.92 201.47,103.97 196.97,114.97 C192.48,125.97 187.36,135.01 179.75,143.75 C172.15,152.49 164.86,159.96 155,165 Z"></path>
            </g>
            <g fill="#EFCBB0" fill-rule="nonzero" id="路径">
                <path d="M7,115 C6.83,114.08 7,112.93 7,112 C7,111.5 7.03,110.5 7,110 C6.79,111.93 6.39,112.84 7,115 Z"></path>
            </g>
            <g fill="#F1D9BE" fill-rule="nonzero" id="路径">
                <path d="M160,138 C160.05,137.77 160.78,137.3 161,137 C161.83,131.2 161.87,122.79 161,117 C160.55,115.51 159.13,115.39 159,113 C159,113 158.15,113.23 158,113 C157.88,120.39 160,129.64 160,138 Z"></path>
            </g>
            <g fill="#A1663D" fill-rule="nonzero" id="路径">
                <path d="M161,117 C160.78,115.5 161.12,113.34 159,113 C159.13,115.39 160.55,115.51 161,117 Z"></path>
            </g>
            <g fill="#D9571E" fill-rule="nonzero" id="路径">
                <path d="M205,142 C194.44,149.24 181.04,157.04 169,162 C173.64,160.65 177.74,157.36 183,158 C179.4,159.52 184.43,161.92 183,165 C195.85,166.62 207.62,165.13 221,164 C220.44,165.27 218.15,165.25 218,167 C224,165 232.06,161.67 237.31,158.31 C242.55,154.94 250.73,153.58 254,148 C254,147.5 254.06,146.49 254,146 C250.82,134.53 244.3,124.49 237,115 C227.26,125.35 216.35,134.21 205,142 Z"></path>
            </g>
            <g fill="#F0D0B8" fill-rule="nonzero" id="路径">
                <path d="M50,122 C48.49,123.94 44.22,129.63 42,133 C46.06,128.06 51.36,122.83 56,118 C54.31,119.23 51.77,120.67 50,122 Z"></path>
            </g>
            <g fill="#E67C36" fill-rule="nonzero" id="路径">
                <path d="M89,121 C88.63,121.61 88.39,122.36 88,123 C88.83,122.24 92.47,120.56 92,121 C93.23,120.72 94.27,119.28 94,118 C92.31,118.14 90.12,119.66 89,121 Z"></path>
            </g>
            <g fill="#C6341F" fill-rule="nonzero" id="路径">
                <path d="M88,123 C78.92,137.92 67.15,149.34 61,166 C55.48,180.96 53,194.41 53,211 C53.56,209.32 57.84,208.23 57,202 C56.16,195.77 59.3,197.89 59.98,189.98 C60.66,182.07 66.84,175.38 68.31,167.31 C69.77,159.23 79.17,156.12 82,150 C82.48,148.96 83.69,146.85 84,146 C84,136.97 88.98,129.08 92,121 C92.47,120.56 88.83,122.24 88,123 Z"></path>
            </g>
            <g fill="#EDB382" fill-rule="nonzero" id="路径">
                <path d="M206,140 C210.37,135.84 215.02,131.66 219,127 C214.81,131.19 209.45,134.99 206,140 Z"></path>
            </g>
            <g fill="#E26F2E" fill-rule="nonzero" id="路径">
                <path d="M165,141 C165,141 164.63,139.94 165,139 C163.02,139.7 162.27,142.17 162,144 C163.62,143.96 163.98,141.7 165,141 Z"></path>
            </g>
            <g fill="#EC7A2C" fill-rule="nonzero" id="路径">
                <path d="M82,150 C78.86,162.48 80.23,180.81 82,193 C82.01,191.33 82,189.67 82,188 C83.39,189.38 83.29,192.06 84,194 C88.89,213.45 96.09,230.14 110.75,245.25 C125.42,260.35 152.98,258.78 171,251 C173.08,249.86 174.93,246.66 178,247 C171.47,244.29 164.33,239.46 158,236 C151.52,233.46 145.07,229.07 140,224 C127.76,216.75 116.32,204.17 105.92,192.08 C95.51,179.99 84,162.86 84,146 C83.69,146.85 82.48,148.96 82,150 Z"></path>
            </g>
            <g fill="#F4D5B5" fill-rule="nonzero" id="路径">
                <path d="M254,148 C254,149.66 254.06,151.34 254,153 C254.42,150.39 254.71,148.75 254,146 C254.06,146.49 254,147.5 254,148 Z"></path>
            </g>
            <g fill="#EF832D" fill-rule="nonzero" id="路径">
                <path d="M30,151 C14.3,178.01 24.82,216.2 55,230 C51.54,226.37 53,215.76 53,211 C53,194.41 55.48,180.96 61,166 C59.71,166.17 59.25,167.7 58,168 C57.76,167.08 58.3,165.9 58,165 C58,163 58,161 58,159 C54.01,158.05 50.08,154.66 47,158 C48.28,153.35 36.26,156.31 37,150 C33.1,153.8 32.87,148.99 30,151 Z"></path>
            </g>
            <g fill="#D34520" fill-rule="nonzero" id="路径">
                <path d="M53,211 C53,215.76 51.54,226.37 55,230 C63.84,234.04 67.93,230.93 78,233 C88.07,235.07 90.61,228.39 86.93,220.07 C83.24,211.76 84.65,206.43 83,198 C82.76,196.79 82.25,194.7 82,193 C80.23,180.81 78.86,162.48 82,150 C79.17,156.12 69.77,159.23 68.31,167.31 C66.84,175.38 60.66,182.07 59.98,189.98 C59.3,197.89 56.16,195.77 57,202 C57.84,208.23 53.56,209.32 53,211 Z"></path>
            </g>
            <g fill="#C5361F" fill-rule="nonzero" id="路径">
                <path d="M140,224 C145.07,229.07 151.52,233.46 158,236 C159.99,236.78 161.63,238.44 164,238 C157.17,229.99 145.39,225.64 141.08,215.92 C136.77,206.2 121.79,198.7 128,187 C126.07,185.74 124.09,184 123,182 C118.38,177.38 113.05,173.13 109,168 C105.74,163.72 102.28,159.25 101,154 C104.03,179.66 120.73,204.73 140,224 Z"></path>
            </g>
            <g fill="#C73921" fill-rule="nonzero" id="路径">
                <path d="M169,162 C164.3,163.37 159.86,164.23 155,165 C149.39,167.16 142.28,165.84 137,168 C163,176.15 192.33,175.56 218,167 C218.15,165.25 220.44,165.27 221,164 C207.62,165.13 195.85,166.62 183,165 C184.43,161.92 179.4,159.52 183,158 C177.74,157.36 173.64,160.65 169,162 Z"></path>
            </g>
            <g fill="#EF892F" fill-rule="nonzero" id="路径">
                <path d="M123,182 C134.65,189.6 147.27,198.04 160,204 C157.8,203.64 162.26,202.46 164.22,203.78 C166.19,205.09 170.18,205.57 172,206 C189.07,210.04 210.59,211.44 226,202 C226.25,200.47 228.55,199.82 228,198 C221.38,196.4 208.63,196.88 210,189 C193.06,184.42 176.54,182.89 159,183 C141.46,183.11 121.55,180.55 109,168 C113.05,173.13 118.38,177.38 123,182 Z"></path>
            </g>
            <g fill="#D7501E" fill-rule="nonzero" id="路径">
                <path d="M158,236 C164.33,239.46 171.47,244.29 178,247 C186.3,240.77 192.94,231.81 196.02,222.02 C199.11,212.24 177.66,210.83 170,208 C166.74,206.8 163.16,205.48 160,204 C147.27,198.04 134.65,189.6 123,182 C124.09,184 126.07,185.74 128,187 C121.79,198.7 136.77,206.2 141.08,215.92 C145.39,225.64 157.17,229.99 164,238 C161.63,238.44 159.99,236.78 158,236 Z"></path>
            </g>
            <g fill="#E5BAA5" fill-rule="nonzero" id="路径">
                <path d="M82,193 C82.25,194.7 82.76,196.79 83,198 C83.03,196.6 83.94,194.75 84,194 C83.29,192.06 83.39,189.38 82,188 C82,189.67 82.01,191.33 82,193 Z"></path>
            </g>
            <g fill="#E8CEBB" fill-rule="nonzero" id="路径">
                <path d="M160,204 C163.16,205.48 166.74,206.8 170,208 C169.65,208.09 169.55,206.31 172,206 C170.18,205.57 166.19,205.09 164.22,203.78 C162.26,202.46 157.8,203.64 160,204 Z"></path>
            </g>
            <g fill="#F2B480" fill-rule="nonzero" id="路径">
                <path d="M171,251 C173.5,249.92 175.95,248.54 178,247 C174.93,246.66 173.08,249.86 171,251 Z"></path>
            </g>
        </g>
    </g>
</svg>